<?xml version="1.0" encoding="UTF-8"?>
<svg id="logosandtypes_com" data-name="logosandtypes com" xmlns="http://www.w3.org/2000/svg" viewBox="0 0 150 150">
  <defs>
    <style>
      .cls-1 {
        fill: none;
      }
    </style>
  </defs>
  <path class="cls-1" d="M0,0H150V150H0V0Z"/>
  <path d="M79.41,66.55c.96,1.33,2.77,1.7,4.19,.88,9.93-5.91,44.17-25.3,54.46-44.62,8.7-16.31-9.51-14.93-19.96-12.94-16.88,3.86-37.41,25.88-39.29,54.32-.08,.84,.14,1.67,.61,2.37Z"/>
  <path d="M119.73,54.01c-6.31,3.94-12.81,7.58-19.48,10.9,7.53,16.95-5.4,38.31-24.13,38.66-1.28,7.78-3.93,15.26-7.81,22.12,39.12,5.69,68.19-36.6,51.42-71.68Z"/>
  <path d="M49.42,86.3c-7.66-17.33,6.03-39,25.13-38.88,1.55-7.68,4.39-15.05,8.38-21.8C43.54,18.58,13.31,60.94,29.63,96.57c6.4-3.81,13.01-7.24,19.79-10.28Z"/>
  <path d="M70.35,84.53c-.97-1.32-2.78-1.69-4.19-.85-9.93,5.88-43.37,25.59-53.66,44.78-11.69,20.71,24.54,14.86,32.55,7.16,15.29-11.41,24.93-29.73,25.95-48.75,.07-.83-.16-1.67-.65-2.35Z"/>
  <ellipse cx="74.89" cy="75.55" rx="6.28" ry="6.4"/>
</svg>