<?xml version="1.0" encoding="UTF-8"?>
<svg version="1.1" xmlns="http://www.w3.org/2000/svg" width="444" height="390">
<path d="M0 0 C1.24375397 -0.00412399 2.48750793 -0.00824799 3.76895142 -0.01249695 C5.13923864 -0.00188096 6.50952365 0.00902345 7.87980652 0.02018738 C9.32880129 0.02103398 10.77779735 0.02055786 12.22679138 0.01885986 C16.15416909 0.01799977 20.08127145 0.03562772 24.00858521 0.05658174 C28.11519614 0.07534619 32.22181351 0.07709879 36.32846069 0.08065796 C44.10215982 0.08997911 51.87573226 0.11459382 59.64937562 0.14470643 C68.50057493 0.17824827 77.35178032 0.1947359 86.20302737 0.20979273 C104.40810303 0.24114333 122.6130608 0.29390518 140.81803894 0.36076355 C140.81691101 1.62146667 140.81578308 2.8821698 140.81462097 4.18107605 C140.81830869 8.8854658 140.86125188 13.58883895 140.91569519 18.29289246 C140.9337961 20.32375007 140.94143447 22.35473026 140.93815613 24.38566589 C140.93528202 27.31581873 140.97077218 30.24346025 141.01335144 33.17326355 C141.00425751 34.07254578 140.99516357 34.971828 140.98579407 35.89836121 C141.13798767 42.58955328 143.12860862 46.58916489 147.81803894 51.36076355 C153.00016856 55.55783507 157.7414728 55.91715225 164.25944519 55.82951355 C165.58829994 55.84008789 165.58829994 55.84008789 166.94400024 55.85087585 C169.75647786 55.87280949 172.5680014 55.86992884 175.38053894 55.86076355 C179.0906866 55.84869596 182.79942109 55.86245917 186.50944519 55.89201355 C187.35334305 55.88069397 188.19724091 55.86937439 189.06671143 55.85771179 C195.28832167 55.91080236 198.94987508 57.51303791 203.46257019 61.99357605 C207.68540902 67.38864105 207.96660673 70.59458949 207.96520996 77.32382202 C207.96888665 78.26389251 207.97256334 79.20396299 207.97635144 80.17252046 C207.98741955 83.34228856 207.99123742 86.51202391 207.99504089 89.68180847 C208.00130321 91.94658005 208.0079498 94.21135059 208.01495361 96.47612 C208.0323855 102.64362667 208.04292143 108.81112558 208.05115914 114.97865081 C208.05630487 118.82976591 208.06238081 122.68087857 208.06867027 126.53199196 C208.08554359 137.19409919 208.10017816 147.85620299 208.10741901 158.51832104 C208.10932892 161.28587025 208.11124925 164.05341945 208.11320496 166.82096863 C208.1136887 167.50883346 208.11417244 168.1966983 208.11467084 168.90540753 C208.12296918 180.04566122 208.14830186 191.18580746 208.18078563 202.32601424 C208.21386279 213.762976 208.23153568 225.19985762 208.23506325 236.63687211 C208.23741653 243.0584949 208.24641306 249.47994795 208.27152443 255.9015255 C208.29476845 261.94338765 208.29905299 267.98496786 208.28876305 274.0268631 C208.28826668 276.24442544 208.29461672 278.46200149 208.30831909 280.67952156 C208.32598297 283.70761581 208.31895844 286.73469228 208.30578613 289.76278687 C208.31675538 290.63984179 208.32772462 291.51689672 208.33902627 292.42052907 C208.27808306 298.22564163 207.16105377 301.58409586 203.81803894 306.36076355 C198.87238798 310.83540014 195.80278249 311.5117632 189.30433655 311.52812195 C188.52014662 311.53391533 187.73595669 311.53970872 186.92800343 311.54567766 C184.28572312 311.56379486 181.64346427 311.57462572 179.00114441 311.58537292 C177.11237389 311.59654441 175.22360537 311.60805761 173.33483887 311.61988831 C167.11832958 311.65649479 160.9017998 311.6816728 154.68522644 311.70451355 C153.09946737 311.71043235 153.09946737 311.71043235 151.48167276 311.71647072 C141.51314832 311.75289385 131.54461687 311.78434277 121.5760479 311.80558014 C108.82038781 311.83315514 96.06528382 311.88391487 83.30985534 311.96605444 C74.34416459 312.02183624 65.37862475 312.05081492 56.41276658 312.06005335 C51.05675138 312.06631286 45.70138776 312.08445263 40.34556198 312.13143921 C35.3040219 312.17511942 30.26348936 312.18558973 25.22179222 312.1708107 C23.37389202 312.17113927 21.52594845 312.18340946 19.67822075 312.20866013 C3.98286895 312.41178326 3.98286895 312.41178326 -1.27372742 307.97807312 C-3.7370375 305.29757931 -4.89696284 302.75683027 -6.18196106 299.36076355 C-8.15517159 297.98809535 -10.15739258 296.65648738 -12.18196106 295.36076355 C-15.68782832 291.47588361 -17.30906462 288.59498352 -17.30221558 283.35546875 C-17.30359024 282.54358597 -17.3049649 281.73170319 -17.30638123 280.8952179 C-17.30278595 280.00833282 -17.29919067 279.12144775 -17.29548645 278.20768738 C-17.29563248 277.27090652 -17.2957785 276.33412567 -17.29592896 275.36895752 C-17.29523156 272.2685465 -17.28744723 269.16819534 -17.27961731 266.0677948 C-17.27775251 263.9197391 -17.2763289 261.77168298 -17.27532959 259.62362671 C-17.27150926 253.96667814 -17.26168307 248.3097552 -17.25062561 242.65281677 C-17.24040111 236.8816411 -17.23582974 231.11046129 -17.23078918 225.33927917 C-17.2200604 214.01309603 -17.20298975 202.68693192 -17.18196106 191.36076355 C-16.02587845 191.09358521 -14.86979584 190.82640686 -13.67868042 190.5511322 C-12.14076795 190.19318657 -10.60288177 189.83512801 -9.0650177 189.47697449 C-8.30555092 189.30177277 -7.54608414 189.12657104 -6.76360321 188.94606018 C-0.58969748 187.50448715 5.40501114 185.73574349 11.38053894 183.61076355 C12.35305603 183.26714783 13.32557312 182.9235321 14.32756042 182.56950378 C48.08965418 170.33871807 71.06949195 149.52400473 86.88053894 117.11076355 C90.23309135 110.25719219 93.53512807 103.9551668 98.81803894 98.36076355 C99.42647644 97.70978699 100.03491394 97.05881042 100.66178894 96.3881073 C108.71640575 88.0775175 108.71640575 88.0775175 115.06803894 87.92326355 C121.48307379 87.48587481 126.34661183 85.98665485 130.81803894 81.23576355 C132.31490513 76.93227326 132.39613654 72.86696022 131.81803894 68.36076355 C130.46711014 65.43529915 130.46711014 65.43529915 128.81803894 63.36076355 C128.81803894 62.70076355 128.81803894 62.04076355 128.81803894 61.36076355 C122.92569961 58.97197733 118.19979968 57.57531607 111.81803894 58.36076355 C107.38668473 60.57644066 104.86251533 62.84139468 102.81803894 67.36076355 C102.72264832 68.3249823 102.62725769 69.28920105 102.52897644 70.28263855 C101.63778074 74.14122212 100.43851332 74.97123521 97.25553894 77.23576355 C85.26892104 86.27680631 77.45371446 97.38439595 70.31803894 110.42326355 C66.39087354 117.5981066 61.96890049 123.98441821 56.81803894 130.36076355 C56.26889832 131.07490417 55.71975769 131.7890448 55.15397644 132.52482605 C46.0941021 143.72693668 33.76244 150.59927318 20.81803894 156.36076355 C19.8700946 156.78615417 19.8700946 156.78615417 18.90299988 157.22013855 C7.32098832 162.33819264 -4.61261922 165.7248054 -17.18196106 167.36076355 C-17.18196106 163.40076355 -17.18196106 159.44076355 -17.18196106 155.36076355 C-16.2009845 155.1906073 -15.22000793 155.02045105 -14.20930481 154.84513855 C18.24046645 149.08792107 43.76499674 137.76851824 63.20475769 110.2240448 C67.72947055 103.64131212 71.5755272 96.66471936 75.26335144 89.58683777 C76.88382698 86.47809913 78.53826146 83.38885349 80.19303894 80.29826355 C80.69819031 79.29795105 81.20334167 78.29763855 81.72380066 77.26701355 C85.14291741 70.93762191 88.00777791 68.19569241 94.62687683 65.39836121 C97.03956229 64.43764883 97.03956229 64.43764883 98.91569519 61.9193573 C101.03804068 55.90145126 100.84784958 49.53480822 98.13053894 43.79826355 C94.03184043 39.47801377 91.33286236 38.1732934 85.38053894 37.92326355 C80.42999911 38.05652169 77.62212021 39.03219244 73.81803894 42.36076355 C73.27921082 42.77970886 72.74038269 43.19865417 72.18522644 43.6302948 C70.22987326 46.10521326 70.54229843 48.11290726 70.44303894 51.23576355 C69.01521963 61.83230684 60.604203 67.65901944 52.63053894 73.8959198 C35.34832418 86.4903338 15.76812329 94.82291074 -5.74446106 94.48576355 C-7.40058411 94.47222839 -7.40058411 94.47222839 -9.09016418 94.4584198 C-11.78766276 94.43506483 -14.48469183 94.40231409 -17.18196106 94.36076355 C-17.3212317 83.67724213 -17.42771924 72.9939381 -17.49283409 62.30969238 C-17.52409275 57.34803611 -17.56646523 52.38700276 -17.63459778 47.42570496 C-17.69998597 42.63403742 -17.73570819 37.84296747 -17.75122452 33.05088806 C-17.76227605 31.22645159 -17.78385773 29.40204634 -17.8163414 27.5778656 C-18.11101587 10.33783681 -18.11101587 10.33783681 -12.96214294 4.73796082 C-8.58926799 1.35498547 -5.59118209 -0.01432412 0 0 Z " fill="#2470A9" transform="translate(213.1819610595703,35.63923645019531)"/>
<path d="M0 0 C4.29980316 2.04829943 7.26792013 4.49659234 9 9 C9.23046875 11.3671875 9.23046875 11.3671875 9.1875 13.875 C9.18105469 14.69742188 9.17460937 15.51984375 9.16796875 16.3671875 C9 19 9 19 8.15625 21.92578125 C7.67398146 25.21170764 7.67398146 25.21170764 10.17578125 28.11328125 C11.20188125 29.19843737 12.24890269 30.26406985 13.3125 31.3125 C13.86647461 31.87936523 14.42044922 32.44623047 14.99121094 33.03027344 C16.64347102 34.70531023 18.31999761 36.35286834 20 38 C21.22009766 39.25103516 21.22009766 39.25103516 22.46484375 40.52734375 C36.85596066 54.52485746 56.52351855 62.37518188 76.37597656 62.37060547 C78.46765489 62.37493308 80.55713766 62.41118614 82.6484375 62.44921875 C95.68498824 62.56014969 107.38039225 59.71408252 119.25 54.1875 C120.00885498 53.83985596 120.76770996 53.49221191 121.54956055 53.1340332 C135.83726414 46.44938006 152.20225307 35.47644696 161 22 C161.57290686 19.11011586 161.30339616 16.98339553 161 14 C162.63687185 10.41447119 163.68972583 9.20684945 167 7 C173.94677871 6.32773109 173.94677871 6.32773109 177.9375 8.875 C180.34050013 11.35081831 180.91052988 12.34388577 181.375 15.75 C180.89578084 19.90323276 179.14769892 22.38667787 176 25 C175.05125 25.37382813 174.1025 25.74765625 173.125 26.1328125 C168.70318028 28.77484978 167.32065755 32.1436652 165.125 36.6875 C164.69791748 37.5323999 164.27083496 38.3772998 163.83081055 39.24780273 C162.53410691 41.82262015 161.26279069 44.40840341 160 47 C151.15887214 65.12951731 151.15887214 65.12951731 145 73 C144.50886719 73.63164062 144.01773438 74.26328125 143.51171875 74.9140625 C139.78579992 79.47354268 135.51344847 83.23879294 131 87 C130.26007813 87.65097656 129.52015625 88.30195313 128.7578125 88.97265625 C95.34623178 117.3998864 38.2908216 117.22953635 -3.5 120.8125 C-4.2347052 120.87584534 -4.9694104 120.93919067 -5.72637939 121.00445557 C-12.82185197 121.60766401 -19.87367559 122.17448475 -27 122 C-27.04125 122.99 -27.0825 123.98 -27.125 125 C-28.00062405 130.84538217 -31.49769277 134.91558311 -35.94140625 138.6171875 C-42.25362719 142.73233706 -48.65548141 142.99350631 -56 142 C-63.13177856 139.9509015 -66.94914887 135.53285304 -70.60546875 129.234375 C-73.2149026 123.18224271 -73.33502793 115.76181204 -71.12109375 109.5234375 C-67.4474374 103.24306129 -61.91888955 98.29246565 -55 96 C-46.99177854 94.83136553 -40.64195983 96.42016488 -34 101 C-30.55159676 104.09223013 -28.42809526 107.58588737 -27 112 C-26.34 111.67 -25.68 111.34 -25 111 C-23.24553995 110.78130691 -21.48438659 110.6153893 -19.72192383 110.47509766 C-18.61508743 110.3847525 -17.50825104 110.29440735 -16.36787415 110.20132446 C-15.15979599 110.10652802 -13.95171783 110.01173157 -12.70703125 109.9140625 C-10.12955271 109.703181 -7.55207892 109.49224146 -4.97460938 109.28125 C-0.92753463 108.95410289 3.1198111 108.63039817 7.16723633 108.30761719 C23.85168214 106.97062631 40.43076095 105.38126074 57 103 C58.41721227 102.80207379 59.83444692 102.60430764 61.25170898 102.40673828 C87.18784327 98.68902119 117.21303832 93.51842535 134.71875 71.875 C135.86934238 70.28973938 136.94609387 68.6511196 138 67 C136.71029297 67.87011719 136.71029297 67.87011719 135.39453125 68.7578125 C127.52074236 73.99054291 119.72007785 78.29649203 111 82 C109.42798828 82.72509766 109.42798828 82.72509766 107.82421875 83.46484375 C71.91261419 98.72715292 33.56647808 90.2215411 -1.12792969 76.36376953 C-23.84537593 67.18285926 -23.84537593 67.18285926 -31.2722168 63.28076172 C-33.85151479 61.68717537 -33.85151479 61.68717537 -36.0625 62.6875 C-36.701875 63.120625 -37.34125 63.55375 -38 64 C-42.75340299 66.51650746 -47.74822501 66.94891885 -53 66 C-57.2431414 63.60643306 -60.15901281 60.52112204 -62 56 C-62.88879107 51.02277001 -62.37827457 46.99811263 -59.8125 42.625 C-57.52444135 39.44326747 -55.79138725 37.31874339 -52 36 C-46.64798027 35.35251216 -42.40442209 35.32286792 -37.5 37.6875 C-34.89899529 40.09342936 -33.40328901 41.75027809 -32 45 C-32.103125 46.23234375 -32.20625 47.4646875 -32.3125 48.734375 C-32.17112557 50.94829253 -32.17112557 50.94829253 -31 53 C-26.60977352 56.06023771 -21.73844382 57.97969281 -16.8125 60 C-15.39245151 60.60786035 -13.97326474 61.21773761 -12.55493164 61.82958984 C3.23512984 68.5781837 19.3190429 74.82976073 36 79 C37.06734375 79.29777344 38.1346875 79.59554687 39.234375 79.90234375 C68.71903325 87.14009357 101.0668278 80.59880062 127.1484375 65.7421875 C131.60147486 63.02156467 135.87101946 60.19361278 140 57 C140.87914062 56.32195312 141.75828125 55.64390625 142.6640625 54.9453125 C148.94706743 49.73727596 152.27311166 44.67834349 155 37 C154.03513672 38.03447266 154.03513672 38.03447266 153.05078125 39.08984375 C136.01564344 56.80541502 111.3330373 70.73097804 86.16796875 71.23828125 C56.01695961 71.72392345 33.87928312 63.22030152 11.55078125 42.63671875 C8.89759793 39.89414794 6.70300304 37.00445945 4.4375 33.9375 C1.60065279 30.17130452 1.60065279 30.17130452 -2.53515625 28.296875 C-4.23174083 28.22522437 -5.93097671 28.19881637 -7.62890625 28.22265625 C-11.26565186 27.88114966 -13.13084836 25.99746436 -15.72265625 23.5703125 C-18.60706425 20.02434304 -18.33196543 15.85666045 -18.28125 11.5078125 C-17.74935905 6.76511816 -15.31691405 4.12878347 -11.8125 1.125 C-7.77961221 -0.48815511 -4.27867968 -0.78991009 0 0 Z " fill="#2670AA" transform="translate(127,73)"/>
<path d="M0 0 C3.80550816 1.83493091 6.65268709 3.24311084 9.3125 6.5625 C9.80363281 7.16191406 10.29476562 7.76132813 10.80078125 8.37890625 C13.69874971 12.29635547 13.1481431 16.27983896 13.14717102 20.96305847 C13.15084771 21.90312896 13.1545244 22.84319944 13.1583125 23.81175691 C13.16938061 26.98152501 13.17319848 30.15126036 13.17700195 33.32104492 C13.18326427 35.5858165 13.18991086 37.85058704 13.19691467 40.11535645 C13.21434656 46.28286312 13.22488249 52.45036203 13.2331202 58.61788726 C13.23826593 62.46900236 13.24434187 66.32011502 13.25063133 70.17122841 C13.26750465 80.83333564 13.28213922 91.49543944 13.28938007 102.15755749 C13.29128998 104.9251067 13.29321031 107.6926559 13.29516602 110.46020508 C13.29564976 111.14806991 13.2961335 111.83593475 13.2966319 112.54464398 C13.30493024 123.68489767 13.33026292 134.82504391 13.36274669 145.96525069 C13.39582385 157.40221245 13.41349674 168.83909407 13.41702431 180.27610856 C13.41937759 186.69773135 13.42837412 193.1191844 13.45348549 199.54076195 C13.47672951 205.5826241 13.48101405 211.62420431 13.47072411 217.66609955 C13.47022774 219.88366189 13.47657778 222.10123794 13.49028015 224.31875801 C13.50794403 227.34685226 13.5009195 230.37392873 13.48774719 233.40202332 C13.49871644 234.27907824 13.50968568 235.15613317 13.52098733 236.05976552 C13.46004412 241.86487808 12.34301483 245.22333231 9 250 C4.05434904 254.47463659 0.98474355 255.15099965 -5.51370239 255.1673584 C-6.29789232 255.17315178 -7.08208225 255.17894517 -7.89003551 255.18491411 C-10.53231582 255.20303131 -13.17457467 255.21386217 -15.81689453 255.22460938 C-17.70566505 255.23578086 -19.59443357 255.24729406 -21.48320007 255.25912476 C-27.69970936 255.29573124 -33.91623914 255.32090925 -40.1328125 255.34375 C-41.71857157 255.3496688 -41.71857157 255.3496688 -43.33636618 255.35570717 C-53.30489062 255.3921303 -63.27342207 255.42357922 -73.24199104 255.44481659 C-85.99765113 255.47239159 -98.75275512 255.52315132 -111.5081836 255.60529089 C-120.47387435 255.66107269 -129.43941419 255.69005137 -138.40527236 255.6992898 C-143.76128756 255.70554931 -149.11665118 255.72368908 -154.47247696 255.77067566 C-159.51401704 255.81435587 -164.55454958 255.82482618 -169.59624672 255.81004715 C-171.44414692 255.81037572 -173.29209049 255.82264591 -175.13981819 255.84789658 C-190.8277917 256.05092423 -190.8277917 256.05092423 -196.09957886 251.76184082 C-198.74285559 249.01885286 -199.47235009 246.74953733 -200 243 C-199.02632162 242.99853344 -198.05264324 242.99706688 -197.04945946 242.99555588 C-173.36358722 242.95896962 -149.67785648 242.89953149 -125.99210167 242.81609726 C-114.53786355 242.77627883 -103.08369441 242.74390056 -91.62939453 242.72900391 C-81.64644818 242.71600195 -71.66365343 242.68907448 -61.68079245 242.64538693 C-56.39435206 242.62273944 -51.10809889 242.60709129 -45.82160568 242.60811615 C-40.84587005 242.60886081 -35.87054879 242.59098784 -30.89492035 242.55883217 C-29.06881983 242.55031297 -27.24267293 242.54859691 -25.41656113 242.55419731 C-22.92210972 242.56082844 -20.42898017 242.54293901 -17.93466187 242.51898193 C-17.21285874 242.52674235 -16.49105561 242.53450277 -15.74737966 242.54249835 C-10.71116035 242.45693394 -7.82734863 241.24217992 -4 238 C-0.22819116 233.59722095 -0.57127439 229.07326332 -0.60127258 223.55314636 C-0.59462576 222.59740654 -0.58797893 221.64166671 -0.58113068 220.65696508 C-0.56246884 217.45243572 -0.56510816 214.2482787 -0.56762695 211.04370117 C-0.55861176 208.74742097 -0.54828514 206.4511456 -0.53674316 204.15487671 C-0.50911869 197.91775576 -0.49988121 191.68072599 -0.49388909 185.44355178 C-0.48451964 178.92654909 -0.45831741 172.4096149 -0.43388367 165.89265442 C-0.39514379 154.9532675 -0.3668072 144.01389885 -0.34643555 133.07446289 C-0.32542549 121.807509 -0.29815018 110.54059898 -0.26245117 99.27368164 C-0.26025235 98.57902529 -0.25805352 97.88436894 -0.25578807 97.16866239 C-0.24471841 93.68372663 -0.2335256 90.19879127 -0.22227156 86.7138561 C-0.12908818 57.80927802 -0.05771104 28.90466983 0 0 Z " fill="#5DC19E" transform="translate(408,92)"/>
<path d="M0 0 C2.9375 2.0625 2.9375 2.0625 5 5 C5.64581382 9.01839713 5.34326252 11.23174578 3.6875 14.9375 C0.49321493 17.38892808 -0.19982576 17.11047773 -4.0625 16.8125 C-11.52742363 16.4641369 -15.60581104 20.24719326 -21 25 C-21.721875 25.60070312 -22.44375 26.20140625 -23.1875 26.8203125 C-30.83523885 33.72120185 -35.06104978 43.18405482 -39.66796875 52.22265625 C-48.90271393 70.29112414 -48.90271393 70.29112414 -56 78 C-56.69480469 78.82242188 -57.38960937 79.64484375 -58.10546875 80.4921875 C-71.44662913 96.02932649 -88.07883504 105.02791541 -107 112 C-107.93070313 112.36738281 -108.86140625 112.73476562 -109.8203125 113.11328125 C-115.68552417 115.38057949 -121.64028512 116.96341967 -127.74365234 118.43237305 C-134.61581538 120.10395844 -141.32931444 122.18205796 -148.05175781 124.37207031 C-149.94303315 124.98163926 -151.84254756 125.56545823 -153.7421875 126.1484375 C-162.87324552 129.0248173 -171.43432996 132.63134081 -179.95751953 136.97802734 C-181.93993614 137.96994653 -183.94629074 138.88527925 -185.96484375 139.80078125 C-189.42781077 141.48837186 -192.3152324 143.17247461 -195 146 C-195.69565112 149.73639029 -195.51234341 152.87331051 -195.14453125 156.6484375 C-194.95821879 160.96887235 -196.01492112 163.0791777 -198.57421875 166.453125 C-202.59206801 170.81221625 -206.67434661 173.6223078 -212.6484375 174.30078125 C-220.08526428 174.33274469 -224.77869398 173.62199328 -230.6875 168.8125 C-235.36251843 163.12666677 -237.80547265 158.00547481 -237.4375 150.51953125 C-236.32969075 144.13973689 -233.08673075 139.44001219 -228.0625 135.4375 C-222.17838798 131.88333838 -215.65149396 131.99408825 -209 133 C-207.45892578 133.79083984 -207.45892578 133.79083984 -205.88671875 134.59765625 C-203.16917617 136.19128396 -203.16917617 136.19128396 -200.5625 135.9375 C-197.13169857 134.68232874 -194.11503342 132.87725362 -191 131 C-177.05194546 122.90819863 -162.22941375 116.85377386 -146.65966797 112.71142578 C-142.73866872 111.66261067 -138.82834115 110.57557938 -134.91659546 109.49284363 C-131.72093686 108.6086619 -128.52447478 107.72787274 -125.32617188 106.85327148 C-90.99808225 97.45956186 -66.28196776 83.34341619 -47.94921875 51.75390625 C-29.67202362 20.30323568 -29.67202362 20.30323568 -14 12 C-13.34 12 -12.68 12 -12 12 C-12.103125 10.7625 -12.20625 9.525 -12.3125 8.25 C-12.30051934 4.87145527 -12.19248587 4.2333162 -9.9375 1.5 C-6.22693494 -0.39475662 -4.11629392 -0.66154724 0 0 Z " fill="#5AC39C" transform="translate(334,100)"/>
<path d="M0 0 C4.29980316 2.04829943 7.26792013 4.49659234 9 9 C9.23046875 11.3671875 9.23046875 11.3671875 9.1875 13.875 C9.18105469 14.69742188 9.17460937 15.51984375 9.16796875 16.3671875 C9 19 9 19 8.15625 21.92578125 C7.67398146 25.21170764 7.67398146 25.21170764 10.17578125 28.11328125 C11.20188125 29.19843737 12.24890269 30.26406985 13.3125 31.3125 C14.14346191 32.16279785 14.14346191 32.16279785 14.99121094 33.03027344 C16.64347102 34.70531023 18.31999761 36.35286834 20 38 C21.22009766 39.25103516 21.22009766 39.25103516 22.46484375 40.52734375 C36.85596066 54.52485746 56.52351855 62.37518188 76.37597656 62.37060547 C78.46765489 62.37493308 80.55713766 62.41118614 82.6484375 62.44921875 C95.68498824 62.56014969 107.38039225 59.71408252 119.25 54.1875 C120.00885498 53.83985596 120.76770996 53.49221191 121.54956055 53.1340332 C136.60180612 46.09168102 149.48636645 35.86411356 160 23 C161.42627564 25.85255128 160.55603999 27.19863489 159.5625 30.1875 C157.2471206 36.277265 154.06731232 39.13189149 149 43 C147.55535119 44.32558434 146.11803363 45.65919518 144.6875 47 C139.82158145 51.3160031 134.62004573 54.74345295 129 58 C128.12085938 58.51433594 127.24171875 59.02867187 126.3359375 59.55859375 C105.88960979 70.64568695 79.04808257 75.21180828 56.3125 69.5 C36.27958427 63.45192693 16.86955089 50.7675794 4.4375 33.9375 C1.60065279 30.17130452 1.60065279 30.17130452 -2.53515625 28.296875 C-4.23174083 28.22522437 -5.93097671 28.19881637 -7.62890625 28.22265625 C-11.26565186 27.88114966 -13.13084836 25.99746436 -15.72265625 23.5703125 C-18.60706425 20.02434304 -18.33196543 15.85666045 -18.28125 11.5078125 C-17.74935905 6.76511816 -15.31691405 4.12878347 -11.8125 1.125 C-7.77961221 -0.48815511 -4.27867968 -0.78991009 0 0 Z " fill="#5DC59D" transform="translate(127,73)"/>
<path d="M0 0 C5.54430048 4.62063259 10.68218557 9.536034 15.77734375 14.64453125 C16.58869278 15.45492355 17.40004181 16.26531586 18.23597717 17.1002655 C19.93727402 18.80088556 21.6373236 20.50275421 23.33618164 22.20581055 C25.95019665 24.82522287 28.56955855 27.43920411 31.18945312 30.05273438 C32.84407111 31.70801241 34.49837927 33.36360022 36.15234375 35.01953125 C36.9397142 35.80487747 37.72708466 36.59022369 38.53831482 37.39936829 C39.61557579 38.4813575 39.61557579 38.4813575 40.71459961 39.58520508 C41.668881 40.54067986 41.668881 40.54067986 42.6424408 41.51545715 C44 43 44 43 44 44 C38.8222407 44.09908128 33.64503653 44.17156806 28.46655273 44.21972656 C26.70603825 44.23980786 24.94559018 44.26707879 23.18530273 44.30175781 C20.65071198 44.35043112 18.11700505 44.37300305 15.58203125 44.390625 C14.79850784 44.41127014 14.01498444 44.43191528 13.2077179 44.45318604 C9.56003593 44.45467451 7.25688673 44.15105155 4.08862305 42.28808594 C-0.2295482 37.55753059 -0.28151121 33.0329728 -0.1953125 26.85546875 C-0.1924826 26.08568192 -0.18965271 25.31589508 -0.18673706 24.52278137 C-0.17559157 22.07752575 -0.15049781 19.63264388 -0.125 17.1875 C-0.1149629 15.52409385 -0.10583833 13.86068193 -0.09765625 12.19726562 C-0.07567073 8.13136763 -0.04118014 4.06574706 0 0 Z " fill="#5BC59E" transform="translate(361,40)"/>
<path d="M0 0 C52.8 0 105.6 0 160 0 C160 1.98 160 3.96 160 6 C107.2 6 54.4 6 0 6 C0 4.02 0 2.04 0 0 Z " fill="#F1F5F7" transform="translate(222,280)"/>
<path d="M0 0 C52.8 0 105.6 0 160 0 C160 1.98 160 3.96 160 6 C107.2 6 54.4 6 0 6 C0 4.02 0 2.04 0 0 Z " fill="#F2F6F8" transform="translate(222,240)"/>
<path d="M0 0 C52.47 0 104.94 0 159 0 C159 1.98 159 3.96 159 6 C106.53 6 54.06 6 0 6 C0 4.02 0 2.04 0 0 Z " fill="#F6F9FA" transform="translate(222,260)"/>
<path d="M0 0 C0.495 1.485 0.495 1.485 1 3 C1.66 3 2.32 3 3 3 C1.504053 13.39588488 -6.43066639 22.21765666 -13 30 C-13.68449219 30.90298828 -13.68449219 30.90298828 -14.3828125 31.82421875 C-22.94467311 42.82133912 -35.52519731 49.4475256 -48 55 C-48.63196289 55.28359375 -49.26392578 55.5671875 -49.91503906 55.859375 C-61.49705062 60.97742909 -73.43065817 64.36404185 -86 66 C-86 62.04 -86 58.08 -86 54 C-85.01902344 53.82984375 -84.03804687 53.6596875 -83.02734375 53.484375 C-49.09322253 47.46380511 -24.25359369 35.33550446 -4.13378906 6.67382812 C-2.66277927 4.50215647 -1.30952166 2.27215017 0 0 Z " fill="#296FA9" transform="translate(282,137)"/>
<path d="M0 0 C0.8545021 0.00092179 1.70900419 0.00184359 2.58940029 0.00279331 C4.05552509 0.00073132 4.05552509 0.00073132 5.55126858 -0.00137234 C6.63235897 0.00222294 7.71344936 0.00581821 8.82730007 0.00952244 C10.52464039 0.0093034 10.52464039 0.0093034 12.25627041 0.00907993 C16.01686389 0.00977964 19.77740855 0.01757472 23.53799343 0.02539158 C26.13731261 0.02725555 28.73663215 0.02867955 31.33595181 0.0296793 C37.49122295 0.03311442 43.64647378 0.04100527 49.80173725 0.05102879 C56.80767064 0.06219089 63.81360485 0.06770062 70.81954491 0.07272422 C85.23481851 0.08318791 99.65007722 0.10078675 114.06533718 0.12304783 C114.06533718 2.10304783 114.06533718 4.08304783 114.06533718 6.12304783 C73.80533718 6.12304783 33.54533718 6.12304783 -7.93466282 6.12304783 C-1.93466282 0.12304783 -1.93466282 0.12304783 0 0 Z " fill="#F4F7F9" transform="translate(267.9346628189087,219.87695217132568)"/>
<path d="M0 0 C36.3 0 72.6 0 110 0 C110 1.98 110 3.96 110 6 C73.7 6 37.4 6 0 6 C0 4.02 0 2.04 0 0 Z " fill="#F1F5F8" transform="translate(222,300)"/>
<path d="M0 0 C0.85307739 0.00719055 1.70615479 0.0143811 2.58508301 0.02178955 C3.48270355 0.0214975 4.3803241 0.02120544 5.30514526 0.02090454 C8.28120488 0.0223013 11.25701618 0.03787877 14.23303223 0.05352783 C16.29283512 0.05725673 18.35263977 0.06010428 20.41244507 0.06210327 C25.84093093 0.06974943 31.26931023 0.08940634 36.69775391 0.11151123 C42.23423826 0.13194853 47.77073979 0.14110045 53.30725098 0.15118408 C64.17578745 0.17265131 75.04424474 0.20679908 85.91271973 0.24884033 C85.91271973 2.22884033 85.91271973 4.20884033 85.91271973 6.24884033 C54.23271973 6.24884033 22.55271973 6.24884033 -10.08728027 6.24884033 C-7.23783202 0.54994383 -6.23737136 0.02207447 0 0 Z " fill="#EAF0F5" transform="translate(296.0872802734375,199.75115966796875)"/>
<path d="M0 0 C1.31238144 0.00222061 2.62476288 0.00444122 3.97691345 0.00672913 C4.6988237 0.0065831 5.42073395 0.00643707 6.16452026 0.00628662 C8.56156879 0.00698583 10.95854054 0.01477857 13.35557556 0.02259827 C15.0132442 0.02446242 16.67091338 0.02588633 18.32858276 0.02688599 C22.69996145 0.03071139 27.07130712 0.04054186 31.44267273 0.05158997 C35.89996392 0.0618036 40.35726043 0.0663835 44.81455994 0.07142639 C53.56652824 0.08216412 62.31846968 0.0992408 71.07041931 0.12025452 C71.07041931 2.10025452 71.07041931 4.08025452 71.07041931 6.12025452 C45.66041931 6.12025452 20.25041931 6.12025452 -5.92958069 6.12025452 C-3.53959675 0.14529468 -3.53959675 0.14529468 0 0 Z " fill="#F0F5F8" transform="translate(309.92958068847656,178.87974548339844)"/>
<path d="M0 0 C3.46868763 2.06645221 5.80891972 4.10191909 7 8 C7.46846274 12.84078166 7.50094246 15.03389668 5.25 19.375 C2.04742257 23.11134034 0.49569615 23.83381154 -4.375 24.375 C-8.69296607 23.92831385 -10.69326548 22.7684289 -14 20 C-16.54993405 15.82579288 -16.83355164 11.77022624 -16 7 C-12.20090333 0.19269667 -7.30267919 -0.92231069 0 0 Z " fill="#60C5A0" transform="translate(28,148)"/>
<path d="M0 0 C21.12 0 42.24 0 64 0 C64 1.98 64 3.96 64 6 C42.22 6 20.44 6 -2 6 C-1.34 4.02 -0.68 2.04 0 0 Z " fill="#F4F7F8" transform="translate(317,159)"/>
<path d="M0 0 C5.53846154 3.07692308 5.53846154 3.07692308 7 6 C7.64507919 11.20671061 7.9173523 14.81709835 4.625 19.0625 C0.5100829 22.09970072 -1.83909023 22.51609098 -7 22 C-10.47998516 19.99707521 -12.7068445 17.87946651 -14 14 C-14.66611433 8.11599006 -14.66611433 8.11599006 -12.953125 5.24609375 C-8.86212849 0.25267154 -6.38644734 -0.53220394 0 0 Z " fill="#2970AD" transform="translate(79,53)"/>
<path d="M0 0 C2.92937654 1.81310142 5.43647949 3.87295899 7 7 C7.5811138 14.08958838 7.5811138 14.08958838 5.125 17.9375 C2.28630124 20.69270762 0.554768 21.22301287 -3.3125 21.4375 C-7.1758643 21.37518767 -7.86169039 21.11008316 -11.0625 18.5625 C-13.33204138 15.22540431 -13.71473118 12.10033089 -13.5 8.12109375 C-12.69230342 4.69469341 -10.72622198 3.07712151 -8 1 C-5.09704195 -0.45147903 -3.22738221 -0.37239025 0 0 Z " fill="#5EC5A0" transform="translate(117,291)"/>
<path d="M0 0 C17.82 0 35.64 0 54 0 C54 1.98 54 3.96 54 6 C35.52 6 17.04 6 -2 6 C-1.34 4.02 -0.68 2.04 0 0 Z " fill="#ECF2F6" transform="translate(327,139)"/>
<path d="M0 0 C3.23805586 2.2155119 3.8984844 3.65104012 5 7.4375 C5 11 5 11 3.1875 13.875 C0.38595037 16.59650535 -0.44049972 16.94819442 -4.375 17.3125 C-8 17 -8 17 -10.375 15.125 C-13.06463552 11.60778432 -13.43467763 9.43371186 -13 5 C-9.09189138 -0.86216294 -6.85666425 -1.53683854 0 0 Z " fill="#2671AF" transform="translate(57,229)"/>
<path d="M0 0 C6.75 5.5 6.75 5.5 9 10 C6.36 8.02 3.72 6.04 1 4 C1 5.98 1 7.96 1 10 C0.67 10 0.34 10 0 10 C0 6.7 0 3.4 0 0 Z " fill="#4EC29A" transform="translate(361,40)"/>
<path d="M0 0 C0.99 0.33 1.98 0.66 3 1 C-0.465 3.97 -0.465 3.97 -4 7 C-4 4 -4 4 -2 1.8125 C-1.34 1.214375 -0.68 0.61625 0 0 Z " fill="#196AA9" transform="translate(64,173)"/>
<path d="M0 0 C-0.8353125 0.37125 -0.8353125 0.37125 -1.6875 0.75 C-4.39971127 2.21606015 -6.63587365 4.02989471 -9 6 C-9 3 -9 3 -7.3125 1.3125 C-4.6402007 -0.20421041 -3.02346601 -0.2519555 0 0 Z " fill="#2F77B2" transform="translate(55,228)"/>
</svg>
